<?xml version="1.0" encoding="utf-8"?>
<!-- Generator: Adobe Illustrator 25.1.0, SVG Export Plug-In . SVG Version: 6.00 Build 0)  -->
<svg version="1.1" id="Capa_1" xmlns="http://www.w3.org/2000/svg" xmlns:xlink="http://www.w3.org/1999/xlink" x="0px" y="0px"
	 viewBox="0 0 512 512" style="enable-background:new 0 0 512 512;" xml:space="preserve">
<g>
	<g>
		<g>
			<circle cx="219.4" cy="393.1" r="18.3"/>
			<path d="M219.4,329.1c-40.4,0-73.1,32.7-73.1,73.1s32.7,73.1,73.1,73.1s73.1-32.7,73.1-73.1C292.5,361.9,259.8,329.2,219.4,329.1
				z M228.6,428.4V448c0,5-4.1,9.1-9.1,9.1c-5,0-9.1-4.1-9.1-9.1v-19.6c-17.8-4.6-29.5-21.7-27.1-40c2.3-18.3,17.9-32,36.3-32
				s34,13.7,36.3,32C258,406.7,246.4,423.8,228.6,428.4z"/>
			<path d="M402.3,274.3v-36.6c0-10.1-8.2-18.3-18.3-18.3H215.8c-12.2,0-23.6-6.1-30.3-16.2l-20.3-30.5c-3.4-5.1-9.1-8.2-15.2-8.2
				h-95c-10.1,0-18.3,8.2-18.3,18.3v310.9c0,10.1,8.2,18.3,18.3,18.3h352.5c-3.3-5.5-5.1-11.8-5.1-18.3L402.3,274.3L402.3,274.3z
				 M304.1,436.9c-14,34.4-47.5,56.8-84.6,56.8c-37.1,0-70.6-22.4-84.6-56.8c-14-34.4-5.9-73.8,20.6-99.8v-35.4
				c0-35.3,28.7-64,64-64c35.3,0,64,28.7,64,64v35.4C310,363.1,318.1,402.5,304.1,436.9z"/>
			<path d="M384,73.1h41.9l-60.2-60.2v41.9C365.7,65,373.9,73.1,384,73.1z"/>
			<path d="M265.1,323.2v-21.5c0-25.2-20.5-45.7-45.7-45.7c-25.2,0-45.7,20.5-45.7,45.7v21.5C202,306.7,236.9,306.7,265.1,323.2z"/>
			<path d="M420.6,256v219.4c10.1,0,18.3-8.2,18.3-18.3V91.4H384c-20.2,0-36.5-16.4-36.6-36.6V0h-256C81.3,0,73.2,8.2,73.1,18.3v128
				h76.7c12.2,0,23.7,6.1,30.5,16.3l20.3,30.4c3.4,5,9.1,8.1,15.2,8.1H384c20.2,0,36.5,16.4,36.6,36.6L420.6,256L420.6,256z
				 M310.9,182.9h-91.4c-5,0-9.1-4.1-9.1-9.1s4.1-9.1,9.1-9.1h91.4c5,0,9.1,4.1,9.1,9.1S315.9,182.9,310.9,182.9z M310.9,146.3
				H201.1c-5,0-9.1-4.1-9.1-9.1c0-5,4.1-9.1,9.1-9.1h109.7c5,0,9.1,4.1,9.1,9.1C320,142.2,315.9,146.3,310.9,146.3z M310.9,109.7
				H109.7c-5,0-9.1-4.1-9.1-9.1c0-5,4.1-9.1,9.1-9.1h201.1c5,0,9.1,4.1,9.1,9.1C320,105.6,315.9,109.7,310.9,109.7z M310.9,73.1
				H109.7c-5,0-9.1-4.1-9.1-9.1s4.1-9.1,9.1-9.1h201.1c5,0,9.1,4.1,9.1,9.1S315.9,73.1,310.9,73.1z"/>
			<path d="M457.1,265.1v192c0,20.2-16.4,36.5-36.6,36.6c0,10.1,8.2,18.3,18.3,18.3h18.3c10.1,0,18.3-8.2,18.3-18.3V283.4
				C475.4,273.3,467.2,265.2,457.1,265.1z"/>
		</g>
	</g>
</g>
</svg>
